<?xml version="1.0" encoding="UTF-8" standalone="no"?>
<!DOCTYPE svg PUBLIC "-//W3C//DTD SVG 1.1//EN"
 "http://www.w3.org/Graphics/SVG/1.1/DTD/svg11.dtd">
<!-- Generated by graphviz version 2.43.0 (0)
 -->
<!-- Title: Tree Pages: 1 -->
<svg width="717pt" height="790pt"
 viewBox="0.00 0.00 717.00 790.00" xmlns="http://www.w3.org/2000/svg" xmlns:xlink="http://www.w3.org/1999/xlink">
<g id="graph0" class="graph" transform="scale(1 1) rotate(0) translate(4 786)">
<title>Tree</title>
<polygon fill="white" stroke="transparent" points="-4,4 -4,-786 713,-786 713,4 -4,4"/>
<!-- 0 -->
<g id="node1" class="node">
<title>0</title>
<path fill="#ffffff" stroke="black" d="M250,-782C250,-782 92,-782 92,-782 86,-782 80,-776 80,-770 80,-770 80,-711 80,-711 80,-705 86,-699 92,-699 92,-699 250,-699 250,-699 256,-699 262,-705 262,-711 262,-711 262,-770 262,-770 262,-776 256,-782 250,-782"/>
<text text-anchor="start" x="88" y="-766.8" font-family="Helvetica,sans-Serif" font-size="14.00">petal width (cm) ≤ 0.75</text>
<text text-anchor="start" x="127" y="-751.8" font-family="Helvetica,sans-Serif" font-size="14.00">gini = 0.667</text>
<text text-anchor="start" x="118" y="-736.8" font-family="Helvetica,sans-Serif" font-size="14.00">samples = 120</text>
<text text-anchor="start" x="100" y="-721.8" font-family="Helvetica,sans-Serif" font-size="14.00">value = [40, 40, 40]</text>
<text text-anchor="start" x="120.5" y="-706.8" font-family="Helvetica,sans-Serif" font-size="14.00">class = setosa</text>
</g>
<!-- 1 -->
<g id="node2" class="node">
<title>1</title>
<path fill="#e58139" stroke="black" d="M138,-655.5C138,-655.5 22,-655.5 22,-655.5 16,-655.5 10,-649.5 10,-643.5 10,-643.5 10,-599.5 10,-599.5 10,-593.5 16,-587.5 22,-587.5 22,-587.5 138,-587.5 138,-587.5 144,-587.5 150,-593.5 150,-599.5 150,-599.5 150,-643.5 150,-643.5 150,-649.5 144,-655.5 138,-655.5"/>
<text text-anchor="start" x="45" y="-640.3" font-family="Helvetica,sans-Serif" font-size="14.00">gini = 0.0</text>
<text text-anchor="start" x="31.5" y="-625.3" font-family="Helvetica,sans-Serif" font-size="14.00">samples = 40</text>
<text text-anchor="start" x="18" y="-610.3" font-family="Helvetica,sans-Serif" font-size="14.00">value = [40, 0, 0]</text>
<text text-anchor="start" x="29.5" y="-595.3" font-family="Helvetica,sans-Serif" font-size="14.00">class = setosa</text>
</g>
<!-- 0&#45;&gt;1 -->
<g id="edge1" class="edge">
<title>0&#45;&gt;1</title>
<path fill="none" stroke="black" d="M139.43,-698.91C130.59,-687.54 120.97,-675.18 112.1,-663.77"/>
<polygon fill="black" stroke="black" points="114.7,-661.41 105.8,-655.67 109.17,-665.71 114.7,-661.41"/>
<text text-anchor="middle" x="102.7" y="-676.77" font-family="Helvetica,sans-Serif" font-size="14.00">True</text>
</g>
<!-- 2 -->
<g id="node3" class="node">
<title>2</title>
<path fill="#ffffff" stroke="black" d="M344,-663C344,-663 180,-663 180,-663 174,-663 168,-657 168,-651 168,-651 168,-592 168,-592 168,-586 174,-580 180,-580 180,-580 344,-580 344,-580 350,-580 356,-586 356,-592 356,-592 356,-651 356,-651 356,-657 350,-663 344,-663"/>
<text text-anchor="start" x="176" y="-647.8" font-family="Helvetica,sans-Serif" font-size="14.00">petal length (cm) ≤ 4.75</text>
<text text-anchor="start" x="227" y="-632.8" font-family="Helvetica,sans-Serif" font-size="14.00">gini = 0.5</text>
<text text-anchor="start" x="213.5" y="-617.8" font-family="Helvetica,sans-Serif" font-size="14.00">samples = 80</text>
<text text-anchor="start" x="195.5" y="-602.8" font-family="Helvetica,sans-Serif" font-size="14.00">value = [0, 40, 40]</text>
<text text-anchor="start" x="200" y="-587.8" font-family="Helvetica,sans-Serif" font-size="14.00">class = versicolor</text>
</g>
<!-- 0&#45;&gt;2 -->
<g id="edge2" class="edge">
<title>0&#45;&gt;2</title>
<path fill="none" stroke="black" d="M202.57,-698.91C209.56,-689.92 217.03,-680.32 224.24,-671.05"/>
<polygon fill="black" stroke="black" points="227.11,-673.06 230.48,-663.02 221.58,-668.77 227.11,-673.06"/>
<text text-anchor="middle" x="233.58" y="-684.13" font-family="Helvetica,sans-Serif" font-size="14.00">False</text>
</g>
<!-- 3 -->
<g id="node4" class="node">
<title>3</title>
<path fill="#39e581" stroke="black" d="M231,-536.5C231,-536.5 115,-536.5 115,-536.5 109,-536.5 103,-530.5 103,-524.5 103,-524.5 103,-480.5 103,-480.5 103,-474.5 109,-468.5 115,-468.5 115,-468.5 231,-468.5 231,-468.5 237,-468.5 243,-474.5 243,-480.5 243,-480.5 243,-524.5 243,-524.5 243,-530.5 237,-536.5 231,-536.5"/>
<text text-anchor="start" x="138" y="-521.3" font-family="Helvetica,sans-Serif" font-size="14.00">gini = 0.0</text>
<text text-anchor="start" x="124.5" y="-506.3" font-family="Helvetica,sans-Serif" font-size="14.00">samples = 35</text>
<text text-anchor="start" x="111" y="-491.3" font-family="Helvetica,sans-Serif" font-size="14.00">value = [0, 35, 0]</text>
<text text-anchor="start" x="111" y="-476.3" font-family="Helvetica,sans-Serif" font-size="14.00">class = versicolor</text>
</g>
<!-- 2&#45;&gt;3 -->
<g id="edge3" class="edge">
<title>2&#45;&gt;3</title>
<path fill="none" stroke="black" d="M231.12,-579.91C222.48,-568.54 213.07,-556.18 204.4,-544.77"/>
<polygon fill="black" stroke="black" points="207.07,-542.51 198.23,-536.67 201.5,-546.74 207.07,-542.51"/>
</g>
<!-- 4 -->
<g id="node5" class="node">
<title>4</title>
<path fill="#9152e8" stroke="black" d="M431,-544C431,-544 273,-544 273,-544 267,-544 261,-538 261,-532 261,-532 261,-473 261,-473 261,-467 267,-461 273,-461 273,-461 431,-461 431,-461 437,-461 443,-467 443,-473 443,-473 443,-532 443,-532 443,-538 437,-544 431,-544"/>
<text text-anchor="start" x="269" y="-528.8" font-family="Helvetica,sans-Serif" font-size="14.00">petal width (cm) ≤ 1.75</text>
<text text-anchor="start" x="308" y="-513.8" font-family="Helvetica,sans-Serif" font-size="14.00">gini = 0.198</text>
<text text-anchor="start" x="303.5" y="-498.8" font-family="Helvetica,sans-Serif" font-size="14.00">samples = 45</text>
<text text-anchor="start" x="290" y="-483.8" font-family="Helvetica,sans-Serif" font-size="14.00">value = [0, 5, 40]</text>
<text text-anchor="start" x="294.5" y="-468.8" font-family="Helvetica,sans-Serif" font-size="14.00">class = virginica</text>
</g>
<!-- 2&#45;&gt;4 -->
<g id="edge4" class="edge">
<title>2&#45;&gt;4</title>
<path fill="none" stroke="black" d="M293.23,-579.91C300.14,-570.92 307.53,-561.32 314.65,-552.05"/>
<polygon fill="black" stroke="black" points="317.51,-554.08 320.83,-544.02 311.96,-549.81 317.51,-554.08"/>
</g>
<!-- 5 -->
<g id="node6" class="node">
<title>5</title>
<path fill="#ffffff" stroke="black" d="M331,-425C331,-425 167,-425 167,-425 161,-425 155,-419 155,-413 155,-413 155,-354 155,-354 155,-348 161,-342 167,-342 167,-342 331,-342 331,-342 337,-342 343,-348 343,-354 343,-354 343,-413 343,-413 343,-419 337,-425 331,-425"/>
<text text-anchor="start" x="163" y="-409.8" font-family="Helvetica,sans-Serif" font-size="14.00">petal length (cm) ≤ 4.95</text>
<text text-anchor="start" x="214" y="-394.8" font-family="Helvetica,sans-Serif" font-size="14.00">gini = 0.5</text>
<text text-anchor="start" x="205" y="-379.8" font-family="Helvetica,sans-Serif" font-size="14.00">samples = 8</text>
<text text-anchor="start" x="191.5" y="-364.8" font-family="Helvetica,sans-Serif" font-size="14.00">value = [0, 4, 4]</text>
<text text-anchor="start" x="187" y="-349.8" font-family="Helvetica,sans-Serif" font-size="14.00">class = versicolor</text>
</g>
<!-- 4&#45;&gt;5 -->
<g id="edge5" class="edge">
<title>4&#45;&gt;5</title>
<path fill="none" stroke="black" d="M316.26,-460.91C308.28,-451.83 299.73,-442.12 291.49,-432.77"/>
<polygon fill="black" stroke="black" points="293.91,-430.21 284.67,-425.02 288.65,-434.84 293.91,-430.21"/>
</g>
<!-- 12 -->
<g id="node13" class="node">
<title>12</title>
<path fill="#843ee6" stroke="black" d="M537,-425C537,-425 373,-425 373,-425 367,-425 361,-419 361,-413 361,-413 361,-354 361,-354 361,-348 367,-342 373,-342 373,-342 537,-342 537,-342 543,-342 549,-348 549,-354 549,-354 549,-413 549,-413 549,-419 543,-425 537,-425"/>
<text text-anchor="start" x="369" y="-409.8" font-family="Helvetica,sans-Serif" font-size="14.00">petal length (cm) ≤ 4.85</text>
<text text-anchor="start" x="411" y="-394.8" font-family="Helvetica,sans-Serif" font-size="14.00">gini = 0.053</text>
<text text-anchor="start" x="406.5" y="-379.8" font-family="Helvetica,sans-Serif" font-size="14.00">samples = 37</text>
<text text-anchor="start" x="393" y="-364.8" font-family="Helvetica,sans-Serif" font-size="14.00">value = [0, 1, 36]</text>
<text text-anchor="start" x="397.5" y="-349.8" font-family="Helvetica,sans-Serif" font-size="14.00">class = virginica</text>
</g>
<!-- 4&#45;&gt;12 -->
<g id="edge12" class="edge">
<title>4&#45;&gt;12</title>
<path fill="none" stroke="black" d="M387.74,-460.91C395.72,-451.83 404.27,-442.12 412.51,-432.77"/>
<polygon fill="black" stroke="black" points="415.35,-434.84 419.33,-425.02 410.09,-430.21 415.35,-434.84"/>
</g>
<!-- 6 -->
<g id="node7" class="node">
<title>6</title>
<path fill="#39e581" stroke="black" d="M128,-298.5C128,-298.5 12,-298.5 12,-298.5 6,-298.5 0,-292.5 0,-286.5 0,-286.5 0,-242.5 0,-242.5 0,-236.5 6,-230.5 12,-230.5 12,-230.5 128,-230.5 128,-230.5 134,-230.5 140,-236.5 140,-242.5 140,-242.5 140,-286.5 140,-286.5 140,-292.5 134,-298.5 128,-298.5"/>
<text text-anchor="start" x="35" y="-283.3" font-family="Helvetica,sans-Serif" font-size="14.00">gini = 0.0</text>
<text text-anchor="start" x="26" y="-268.3" font-family="Helvetica,sans-Serif" font-size="14.00">samples = 2</text>
<text text-anchor="start" x="12.5" y="-253.3" font-family="Helvetica,sans-Serif" font-size="14.00">value = [0, 2, 0]</text>
<text text-anchor="start" x="8" y="-238.3" font-family="Helvetica,sans-Serif" font-size="14.00">class = versicolor</text>
</g>
<!-- 5&#45;&gt;6 -->
<g id="edge6" class="edge">
<title>5&#45;&gt;6</title>
<path fill="none" stroke="black" d="M186.9,-341.91C168.24,-329.71 147.83,-316.37 129.36,-304.3"/>
<polygon fill="black" stroke="black" points="131.03,-301.21 120.74,-298.67 127.2,-307.07 131.03,-301.21"/>
</g>
<!-- 7 -->
<g id="node8" class="node">
<title>7</title>
<path fill="#c09cf2" stroke="black" d="M328,-306C328,-306 170,-306 170,-306 164,-306 158,-300 158,-294 158,-294 158,-235 158,-235 158,-229 164,-223 170,-223 170,-223 328,-223 328,-223 334,-223 340,-229 340,-235 340,-235 340,-294 340,-294 340,-300 334,-306 328,-306"/>
<text text-anchor="start" x="166" y="-290.8" font-family="Helvetica,sans-Serif" font-size="14.00">petal width (cm) ≤ 1.55</text>
<text text-anchor="start" x="205" y="-275.8" font-family="Helvetica,sans-Serif" font-size="14.00">gini = 0.444</text>
<text text-anchor="start" x="205" y="-260.8" font-family="Helvetica,sans-Serif" font-size="14.00">samples = 6</text>
<text text-anchor="start" x="191.5" y="-245.8" font-family="Helvetica,sans-Serif" font-size="14.00">value = [0, 2, 4]</text>
<text text-anchor="start" x="191.5" y="-230.8" font-family="Helvetica,sans-Serif" font-size="14.00">class = virginica</text>
</g>
<!-- 5&#45;&gt;7 -->
<g id="edge7" class="edge">
<title>5&#45;&gt;7</title>
<path fill="none" stroke="black" d="M249,-341.91C249,-333.65 249,-324.86 249,-316.3"/>
<polygon fill="black" stroke="black" points="252.5,-316.02 249,-306.02 245.5,-316.02 252.5,-316.02"/>
</g>
<!-- 8 -->
<g id="node9" class="node">
<title>8</title>
<path fill="#8139e5" stroke="black" d="M128.5,-179.5C128.5,-179.5 21.5,-179.5 21.5,-179.5 15.5,-179.5 9.5,-173.5 9.5,-167.5 9.5,-167.5 9.5,-123.5 9.5,-123.5 9.5,-117.5 15.5,-111.5 21.5,-111.5 21.5,-111.5 128.5,-111.5 128.5,-111.5 134.5,-111.5 140.5,-117.5 140.5,-123.5 140.5,-123.5 140.5,-167.5 140.5,-167.5 140.5,-173.5 134.5,-179.5 128.5,-179.5"/>
<text text-anchor="start" x="40" y="-164.3" font-family="Helvetica,sans-Serif" font-size="14.00">gini = 0.0</text>
<text text-anchor="start" x="31" y="-149.3" font-family="Helvetica,sans-Serif" font-size="14.00">samples = 3</text>
<text text-anchor="start" x="17.5" y="-134.3" font-family="Helvetica,sans-Serif" font-size="14.00">value = [0, 0, 3]</text>
<text text-anchor="start" x="17.5" y="-119.3" font-family="Helvetica,sans-Serif" font-size="14.00">class = virginica</text>
</g>
<!-- 7&#45;&gt;8 -->
<g id="edge8" class="edge">
<title>7&#45;&gt;8</title>
<path fill="none" stroke="black" d="M188.63,-222.91C170.58,-210.77 150.84,-197.49 132.94,-185.46"/>
<polygon fill="black" stroke="black" points="134.58,-182.34 124.33,-179.67 130.67,-188.15 134.58,-182.34"/>
</g>
<!-- 9 -->
<g id="node10" class="node">
<title>9</title>
<path fill="#9cf2c0" stroke="black" d="M337.5,-187C337.5,-187 170.5,-187 170.5,-187 164.5,-187 158.5,-181 158.5,-175 158.5,-175 158.5,-116 158.5,-116 158.5,-110 164.5,-104 170.5,-104 170.5,-104 337.5,-104 337.5,-104 343.5,-104 349.5,-110 349.5,-116 349.5,-116 349.5,-175 349.5,-175 349.5,-181 343.5,-187 337.5,-187"/>
<text text-anchor="start" x="166.5" y="-171.8" font-family="Helvetica,sans-Serif" font-size="14.00">sepal length (cm) ≤ 6.95</text>
<text text-anchor="start" x="210" y="-156.8" font-family="Helvetica,sans-Serif" font-size="14.00">gini = 0.444</text>
<text text-anchor="start" x="210" y="-141.8" font-family="Helvetica,sans-Serif" font-size="14.00">samples = 3</text>
<text text-anchor="start" x="196.5" y="-126.8" font-family="Helvetica,sans-Serif" font-size="14.00">value = [0, 2, 1]</text>
<text text-anchor="start" x="192" y="-111.8" font-family="Helvetica,sans-Serif" font-size="14.00">class = versicolor</text>
</g>
<!-- 7&#45;&gt;9 -->
<g id="edge9" class="edge">
<title>7&#45;&gt;9</title>
<path fill="none" stroke="black" d="M250.73,-222.91C251.09,-214.56 251.47,-205.67 251.84,-197.02"/>
<polygon fill="black" stroke="black" points="255.34,-197.16 252.27,-187.02 248.34,-196.86 255.34,-197.16"/>
</g>
<!-- 10 -->
<g id="node11" class="node">
<title>10</title>
<path fill="#39e581" stroke="black" d="M235,-68C235,-68 119,-68 119,-68 113,-68 107,-62 107,-56 107,-56 107,-12 107,-12 107,-6 113,0 119,0 119,0 235,0 235,0 241,0 247,-6 247,-12 247,-12 247,-56 247,-56 247,-62 241,-68 235,-68"/>
<text text-anchor="start" x="142" y="-52.8" font-family="Helvetica,sans-Serif" font-size="14.00">gini = 0.0</text>
<text text-anchor="start" x="133" y="-37.8" font-family="Helvetica,sans-Serif" font-size="14.00">samples = 2</text>
<text text-anchor="start" x="119.5" y="-22.8" font-family="Helvetica,sans-Serif" font-size="14.00">value = [0, 2, 0]</text>
<text text-anchor="start" x="115" y="-7.8" font-family="Helvetica,sans-Serif" font-size="14.00">class = versicolor</text>
</g>
<!-- 9&#45;&gt;10 -->
<g id="edge10" class="edge">
<title>9&#45;&gt;10</title>
<path fill="none" stroke="black" d="M225.33,-103.73C219.11,-94.88 212.52,-85.51 206.27,-76.63"/>
<polygon fill="black" stroke="black" points="209.03,-74.47 200.42,-68.3 203.31,-78.49 209.03,-74.47"/>
</g>
<!-- 11 -->
<g id="node12" class="node">
<title>11</title>
<path fill="#8139e5" stroke="black" d="M384.5,-68C384.5,-68 277.5,-68 277.5,-68 271.5,-68 265.5,-62 265.5,-56 265.5,-56 265.5,-12 265.5,-12 265.5,-6 271.5,0 277.5,0 277.5,0 384.5,0 384.5,0 390.5,0 396.5,-6 396.5,-12 396.5,-12 396.5,-56 396.5,-56 396.5,-62 390.5,-68 384.5,-68"/>
<text text-anchor="start" x="296" y="-52.8" font-family="Helvetica,sans-Serif" font-size="14.00">gini = 0.0</text>
<text text-anchor="start" x="287" y="-37.8" font-family="Helvetica,sans-Serif" font-size="14.00">samples = 1</text>
<text text-anchor="start" x="273.5" y="-22.8" font-family="Helvetica,sans-Serif" font-size="14.00">value = [0, 0, 1]</text>
<text text-anchor="start" x="273.5" y="-7.8" font-family="Helvetica,sans-Serif" font-size="14.00">class = virginica</text>
</g>
<!-- 9&#45;&gt;11 -->
<g id="edge11" class="edge">
<title>9&#45;&gt;11</title>
<path fill="none" stroke="black" d="M282.67,-103.73C288.89,-94.88 295.48,-85.51 301.73,-76.63"/>
<polygon fill="black" stroke="black" points="304.69,-78.49 307.58,-68.3 298.97,-74.47 304.69,-78.49"/>
</g>
<!-- 13 -->
<g id="node14" class="node">
<title>13</title>
<path fill="#c09cf2" stroke="black" d="M538.5,-306C538.5,-306 371.5,-306 371.5,-306 365.5,-306 359.5,-300 359.5,-294 359.5,-294 359.5,-235 359.5,-235 359.5,-229 365.5,-223 371.5,-223 371.5,-223 538.5,-223 538.5,-223 544.5,-223 550.5,-229 550.5,-235 550.5,-235 550.5,-294 550.5,-294 550.5,-300 544.5,-306 538.5,-306"/>
<text text-anchor="start" x="367.5" y="-290.8" font-family="Helvetica,sans-Serif" font-size="14.00">sepal length (cm) ≤ 5.95</text>
<text text-anchor="start" x="411" y="-275.8" font-family="Helvetica,sans-Serif" font-size="14.00">gini = 0.444</text>
<text text-anchor="start" x="411" y="-260.8" font-family="Helvetica,sans-Serif" font-size="14.00">samples = 3</text>
<text text-anchor="start" x="397.5" y="-245.8" font-family="Helvetica,sans-Serif" font-size="14.00">value = [0, 1, 2]</text>
<text text-anchor="start" x="397.5" y="-230.8" font-family="Helvetica,sans-Serif" font-size="14.00">class = virginica</text>
</g>
<!-- 12&#45;&gt;13 -->
<g id="edge13" class="edge">
<title>12&#45;&gt;13</title>
<path fill="none" stroke="black" d="M455,-341.91C455,-333.65 455,-324.86 455,-316.3"/>
<polygon fill="black" stroke="black" points="458.5,-316.02 455,-306.02 451.5,-316.02 458.5,-316.02"/>
</g>
<!-- 16 -->
<g id="node17" class="node">
<title>16</title>
<path fill="#8139e5" stroke="black" d="M697,-298.5C697,-298.5 581,-298.5 581,-298.5 575,-298.5 569,-292.5 569,-286.5 569,-286.5 569,-242.5 569,-242.5 569,-236.5 575,-230.5 581,-230.5 581,-230.5 697,-230.5 697,-230.5 703,-230.5 709,-236.5 709,-242.5 709,-242.5 709,-286.5 709,-286.5 709,-292.5 703,-298.5 697,-298.5"/>
<text text-anchor="start" x="604" y="-283.3" font-family="Helvetica,sans-Serif" font-size="14.00">gini = 0.0</text>
<text text-anchor="start" x="590.5" y="-268.3" font-family="Helvetica,sans-Serif" font-size="14.00">samples = 34</text>
<text text-anchor="start" x="577" y="-253.3" font-family="Helvetica,sans-Serif" font-size="14.00">value = [0, 0, 34]</text>
<text text-anchor="start" x="581.5" y="-238.3" font-family="Helvetica,sans-Serif" font-size="14.00">class = virginica</text>
</g>
<!-- 12&#45;&gt;16 -->
<g id="edge16" class="edge">
<title>12&#45;&gt;16</title>
<path fill="none" stroke="black" d="M518.84,-341.91C538.1,-329.66 559.19,-316.25 578.24,-304.13"/>
<polygon fill="black" stroke="black" points="580.28,-306.99 586.84,-298.67 576.52,-301.08 580.28,-306.99"/>
</g>
<!-- 14 -->
<g id="node15" class="node">
<title>14</title>
<path fill="#39e581" stroke="black" d="M507,-179.5C507,-179.5 391,-179.5 391,-179.5 385,-179.5 379,-173.5 379,-167.5 379,-167.5 379,-123.5 379,-123.5 379,-117.5 385,-111.5 391,-111.5 391,-111.5 507,-111.5 507,-111.5 513,-111.5 519,-117.5 519,-123.5 519,-123.5 519,-167.5 519,-167.5 519,-173.5 513,-179.5 507,-179.5"/>
<text text-anchor="start" x="414" y="-164.3" font-family="Helvetica,sans-Serif" font-size="14.00">gini = 0.0</text>
<text text-anchor="start" x="405" y="-149.3" font-family="Helvetica,sans-Serif" font-size="14.00">samples = 1</text>
<text text-anchor="start" x="391.5" y="-134.3" font-family="Helvetica,sans-Serif" font-size="14.00">value = [0, 1, 0]</text>
<text text-anchor="start" x="387" y="-119.3" font-family="Helvetica,sans-Serif" font-size="14.00">class = versicolor</text>
</g>
<!-- 13&#45;&gt;14 -->
<g id="edge14" class="edge">
<title>13&#45;&gt;14</title>
<path fill="none" stroke="black" d="M452.92,-222.91C452.37,-212.2 451.78,-200.62 451.22,-189.78"/>
<polygon fill="black" stroke="black" points="454.71,-189.47 450.7,-179.67 447.72,-189.83 454.71,-189.47"/>
</g>
<!-- 15 -->
<g id="node16" class="node">
<title>15</title>
<path fill="#8139e5" stroke="black" d="M656.5,-179.5C656.5,-179.5 549.5,-179.5 549.5,-179.5 543.5,-179.5 537.5,-173.5 537.5,-167.5 537.5,-167.5 537.5,-123.5 537.5,-123.5 537.5,-117.5 543.5,-111.5 549.5,-111.5 549.5,-111.5 656.5,-111.5 656.5,-111.5 662.5,-111.5 668.5,-117.5 668.5,-123.5 668.5,-123.5 668.5,-167.5 668.5,-167.5 668.5,-173.5 662.5,-179.5 656.5,-179.5"/>
<text text-anchor="start" x="568" y="-164.3" font-family="Helvetica,sans-Serif" font-size="14.00">gini = 0.0</text>
<text text-anchor="start" x="559" y="-149.3" font-family="Helvetica,sans-Serif" font-size="14.00">samples = 2</text>
<text text-anchor="start" x="545.5" y="-134.3" font-family="Helvetica,sans-Serif" font-size="14.00">value = [0, 0, 2]</text>
<text text-anchor="start" x="545.5" y="-119.3" font-family="Helvetica,sans-Serif" font-size="14.00">class = virginica</text>
</g>
<!-- 13&#45;&gt;15 -->
<g id="edge15" class="edge">
<title>13&#45;&gt;15</title>
<path fill="none" stroke="black" d="M506.35,-222.91C521.42,-210.99 537.89,-197.98 552.88,-186.12"/>
<polygon fill="black" stroke="black" points="555.37,-188.61 561.05,-179.67 551.03,-183.12 555.37,-188.61"/>
</g>
</g>
</svg>
